This black & white, 16-millimeter film is an exercise in cinema verite, conceived by an anthropologist/moviemaker (Jean Rouch) and a sociologist/movie critic (Edgar Morin). The all-amateur cast includes a black university student, a factory worker and a young holocaust survivor. Each is interviewed on a variety of current-events topics, and each is permitted to ramble on until the camera runs out of film. As a coda, the interviewees are seen talking among themselves, asking each other if they had been "acting" while on camera. 

General
Complete name                    : Jean Rouch - Chronique d'un ete.avi
Format                           : AVI
Format/Info                      : Audio Video Interleave
File size                        : 1.03 GiB
Duration                         : 1h 25mn
Overall bit rate                 : 1 708 Kbps
Writing application              : VirtualDubMod 1.5.10.2 (build 2540/release)
Writing library                  : VirtualDubMod build 2540/release

Video
ID                               : 0
Format                           : MPEG-4 Visual
Format profile                   : Advanced Simple@L5
Format settings, BVOP            : Yes
Format settings, QPel            : No
Format settings, GMC             : No warppoints
Format settings, Matrix          : Default (H.263)
Muxing mode                      : Packed bitstream
Codec ID                         : XVID
Codec ID/Hint                    : XviD
Duration                         : 1h 25mn
Bit rate                         : 1 590 Kbps
Width                            : 624 pixels
Height                           : 464 pixels
Display aspect ratio             : 4:3
Frame rate                       : 23.976 fps
Color space                      : YUV
Chroma subsampling               : 4:2:0
Bit depth                        : 8 bits
Scan type                        : Progressive
Bits/(Pixel*Frame)               : 0.229
Stream size                      : 978 MiB (93%)
Writing library                  : XviD 1.2.1 (UTC 2008-12-04)

Audio
ID                               : 1
Format                           : MPEG Audio
Format version                   : Version 1
Format profile                   : Layer 3
Mode                             : Joint stereo
Mode extension                   : MS Stereo
Codec ID                         : 55
Codec ID/Hint                    : MP3
Duration                         : 1h 25mn
Bit rate mode                    : Variable
Bit rate                         : 105 Kbps
Minimum bit rate                 : 32.0 Kbps
Channel(s)                       : 2 channels
Sampling rate                    : 48.0 KHz
Stream size                      : 64.5 MiB (6%)
Alignment                        : Aligned on interleaves
Interleave, duration             : 24 ms (0.58 video frame)
Interleave, preload duration     : 175 ms
Writing library                  : LAME3.98 
Encoding settings                : -m j -V 5 -q 0 -lowpass 16.5 --vbr-new -b 32
 
http://www.imdb.com/title/tt0054745/

French audio; English, French, Spanish and Portuguese subpack

From Karagarga, where it was posted by jenonumo, whom we thank

